The Treasure of the Sierra Madre (1948) B & W

Director: John Huston

Bogart's best film. His portrayal of a callous, miserly disloyal sonofabitch was a marked contrast to the smooth benevolence of Rick in Casablanca; which is why the film flopped at the box office, the audience didn't want the actor they wanted the stereotype.

Bogart, Tim Holt and Walter Huston, the director's father; are roughnecks digging for gold in Mexico. Initial trust crumbles as the trio strike it rich, and greed and suspicion (or in Bogart's case madness) set in. Huston establishes the characters and in his own words "Watches them stew in their own juice." In fact the film is one long complex character study into the effect of wealth on a clan of wretches. Beside the subtextual themes of loyalty and male-bonding is the film's message - life is cheap. Note the motiveless deaths that occur and their effect on the other characters.

Huston's obssession with authenticity lead him to film entirely on location in Mexico (another reason the film bombed, as the audience couldn't accept anything other than a studio look) and include long chunks of Spanish dialogue. He won two Oscars for direction and screenplay and Walter Huston won Best Supporting Actor but the best film award went to Olivier's Hamlet (a mistake I believe). The fight scene in which Bogart and Holt beat up their boss must surely rank as one of the classic moments in cinema history. 

Media Info:
General
Complete name                    : J:\Seeding\The Treasure of the Sierra Madre (1948)[DVDRip][big_dad_e™]\The Treasure of the Sierra Madre (1948)[DVDRip][big_dad_e™].AVI
Format                           : AVI
Format/Info                      : Audio Video Interleave
File size                        : 1.61 GiB
Duration                         : 2h 6mn
Overall bit rate                 : 1 832 Kbps

Video
ID                               : 0
Format                           : MPEG-4 Visual
Format profile                   : Simple@L3
Format settings, BVOP            : No
Format settings, QPel            : No
Format settings, GMC             : No warppoints
Format settings, Matrix          : Default (H.263)
Codec ID                         : XVID
Codec ID/Hint                    : XviD
Duration                         : 2h 6mn
Bit rate                         : 1 500 Kbps
Width                            : 720 pixels
Height                           : 480 pixels
Display aspect ratio             : 4:3
Frame rate                       : 23.976 fps
Standard                         : NTSC
Color space                      : YUV
Chroma subsampling               : 4:2:0
Bit depth                        : 8 bits
Scan type                        : Progressive
Bits/(Pixel*Frame)               : 0.181
Stream size                      : 1.32 GiB (82%)
Writing library                  : XviD 
Audio
ID                               : 1
Format                           : MPEG Audio
Format version                   : Version 1
Format profile                   : Layer 3
Mode                             : Joint stereo
Mode extension                   : MS Stereo
Codec ID                         : 55
Codec ID/Hint                    : MP3
Duration                         : 2h 6mn
Bit rate mode                    : Constant
Bit rate                         : 320 Kbps
Channel(s)                       : 2 channels
Sampling rate                    : 48.0 KHz
Stream size                      : 289 MiB (17%)
Alignment                        : Split accross interleaves
Interleave, duration             : 24 ms (0.58 video frame)
Interleave, preload duration     : 503 ms
Writing library                  : LAME3.98

File Scan:
Malwarebytes' Anti-Malware 1.50.1.1100
www.malwarebytes.org

Database version: 5833
2/21/2011 4:16:56 PM
mbam-log-2011-02-21 (16-16-56).txt

Scan type: Quick scan
Objects scanned: 5
Time elapsed: 9 second(s)

Memory Processes Infected: 0
Memory Modules Infected: 0
Registry Keys Infected: 0
Registry Values Infected: 0
Registry Data Items Infected: 0
Folders Infected: 0
Files Infected: 0

Memory Processes Infected:
(No malicious items detected)

Memory Modules Infected:
(No malicious items detected)

Registry Keys Infected:
(No malicious items detected)

Registry Values Infected:
(No malicious items detected)

Registry Data Items Infected:
(No malicious items detected)

Folders Infected:
(No malicious items detected)

Files Infected:
(No malicious items detected)

When using TPB please read these important notes:
  
01- Anti-malware apps may warn about keygens, patches, cracks, etc., because of 
    their capabilities, (generating codes, etc.). Sometimes they're added to 
    the virus/spyware database and will be detected as malware. If you don't trust
    the keygens, patches, cracks, etc., don't use them. 
    
02- Before running .exe-files, keygens, patches, cracks, etc., always check first 
    if they can be unpacked. Often some third party added a virus to the 
    original file, repacked it and uploaded it again.

03- Letting anti-malware apps send scan results to their companies can cause
    keygens, patches, cracks, etc., to be added to their virus-database.

04- Firewalls which are set to automatically determine connections will allow 
    apps & malware!. Avoid this by manually configuring your firewall.

05- Usually (new) torrents with many downloads and seeders in a brief period is
    suspicious! Torrents with the Skull & Crossbones icon are trusted.

06- Some people use multiple accounts and post fake comments 
    and/or files trying to spread confusion. They seldom seriously
    comment or have any torrents, or a just a few to look passable.

07- Clicking on unknown links can cause malware to be installed on your machine.
  
08- In general often there are more fake and negative comments than reliable and
    positive comments.

09- In some countries uploading/downloading copyright protected material is 
    forbidden, but showing some appreciation to reliable up-loaders is not.

10- Posting fake and negative comments or fake/infected uploads on TPB can result
    in getting banned from TPB!

Requests?  Find me on SuprBay. http://forum.suprbay.org
 

For reporting bad or suspicious torrents:  
http://forum.suprbay.org/forumdisplay.php?fid=29

For more of my torrents: 
https://thepiratebay.org/user/big_dad_e/  (Secured)

All torrents scanned with:
Norton Anti-virus
Malwarebytes' Anti-malware
 
http://www.pirate-party.us/

ALWAYS SEED & THANKS SEEDERS!